<mxfile host="app.diagrams.net" agent="Mozilla/5.0 (Windows NT 10.0; Win64; x64) AppleWebKit/537.36 (KHTML, like Gecko) Chrome/137.0.0.0 Safari/537.36" version="27.1.6">
  <diagram name="Page-1" id="JMQvpAv1OXEOiqb7EjPi">
    <mxGraphModel dx="1188" dy="648" grid="1" gridSize="10" guides="1" tooltips="1" connect="1" arrows="1" fold="1" page="1" pageScale="1" pageWidth="1100" pageHeight="850" math="0" shadow="0">
      <root>
        <mxCell id="0" />
        <mxCell id="1" parent="0" />
        <mxCell id="PYKxxs9gpcjiEWfJuZfg-4" value="PS" style="swimlane;whiteSpace=wrap;html=1;" vertex="1" parent="1">
          <mxGeometry x="100" y="160" width="340" height="300" as="geometry" />
        </mxCell>
        <mxCell id="PYKxxs9gpcjiEWfJuZfg-8" value="ARM Cortex A9" style="rounded=0;whiteSpace=wrap;html=1;" vertex="1" parent="PYKxxs9gpcjiEWfJuZfg-4">
          <mxGeometry x="122.5" y="70" width="95" height="60" as="geometry" />
        </mxCell>
        <mxCell id="PYKxxs9gpcjiEWfJuZfg-9" value="UART" style="rounded=0;whiteSpace=wrap;html=1;" vertex="1" parent="PYKxxs9gpcjiEWfJuZfg-4">
          <mxGeometry x="260" y="200" width="60" height="50" as="geometry" />
        </mxCell>
        <mxCell id="PYKxxs9gpcjiEWfJuZfg-12" value="" style="endArrow=classic;html=1;rounded=0;" edge="1" parent="PYKxxs9gpcjiEWfJuZfg-4">
          <mxGeometry width="50" height="50" relative="1" as="geometry">
            <mxPoint x="270" y="330" as="sourcePoint" />
            <mxPoint x="270" y="250" as="targetPoint" />
          </mxGeometry>
        </mxCell>
        <mxCell id="PYKxxs9gpcjiEWfJuZfg-22" value="WiFi / BLE" style="rounded=0;whiteSpace=wrap;html=1;" vertex="1" parent="PYKxxs9gpcjiEWfJuZfg-4">
          <mxGeometry x="20" y="240" width="50" height="40" as="geometry" />
        </mxCell>
        <mxCell id="PYKxxs9gpcjiEWfJuZfg-20" value="Mapping" style="rounded=0;whiteSpace=wrap;html=1;" vertex="1" parent="PYKxxs9gpcjiEWfJuZfg-4">
          <mxGeometry x="20" y="70" width="85" height="100" as="geometry" />
        </mxCell>
        <mxCell id="PYKxxs9gpcjiEWfJuZfg-24" value="Path Planning" style="rounded=0;whiteSpace=wrap;html=1;" vertex="1" parent="PYKxxs9gpcjiEWfJuZfg-4">
          <mxGeometry x="12.5" y="180" width="100" height="50" as="geometry" />
        </mxCell>
        <mxCell id="PYKxxs9gpcjiEWfJuZfg-7" value="PL" style="swimlane;whiteSpace=wrap;html=1;" vertex="1" parent="1">
          <mxGeometry x="530" y="160" width="340" height="300" as="geometry" />
        </mxCell>
        <mxCell id="PYKxxs9gpcjiEWfJuZfg-14" value="Pose Estimation (CSM)" style="rounded=0;whiteSpace=wrap;html=1;" vertex="1" parent="PYKxxs9gpcjiEWfJuZfg-7">
          <mxGeometry x="30" y="130" width="120" height="135" as="geometry" />
        </mxCell>
        <mxCell id="PYKxxs9gpcjiEWfJuZfg-15" value="PWM" style="rounded=0;whiteSpace=wrap;html=1;" vertex="1" parent="PYKxxs9gpcjiEWfJuZfg-7">
          <mxGeometry x="250" y="40" width="75" height="60" as="geometry" />
        </mxCell>
        <mxCell id="PYKxxs9gpcjiEWfJuZfg-16" value="Motor Encoders" style="rounded=0;whiteSpace=wrap;html=1;" vertex="1" parent="PYKxxs9gpcjiEWfJuZfg-7">
          <mxGeometry x="190" y="130" width="100" height="70" as="geometry" />
        </mxCell>
        <mxCell id="PYKxxs9gpcjiEWfJuZfg-23" value="LEDs / SWs" style="rounded=0;whiteSpace=wrap;html=1;" vertex="1" parent="PYKxxs9gpcjiEWfJuZfg-7">
          <mxGeometry x="25" y="40" width="55" height="50" as="geometry" />
        </mxCell>
        <mxCell id="PYKxxs9gpcjiEWfJuZfg-26" value="Motion Controller" style="rounded=0;whiteSpace=wrap;html=1;" vertex="1" parent="PYKxxs9gpcjiEWfJuZfg-7">
          <mxGeometry x="160" y="40" width="75" height="60" as="geometry" />
        </mxCell>
        <mxCell id="PYKxxs9gpcjiEWfJuZfg-28" value="Sensor Fusion / EKF" style="rounded=0;whiteSpace=wrap;html=1;" vertex="1" parent="PYKxxs9gpcjiEWfJuZfg-7">
          <mxGeometry x="190" y="210" width="100" height="70" as="geometry" />
        </mxCell>
        <mxCell id="PYKxxs9gpcjiEWfJuZfg-10" value="" style="endArrow=classic;html=1;rounded=0;" edge="1" parent="1">
          <mxGeometry width="50" height="50" relative="1" as="geometry">
            <mxPoint x="420" y="390" as="sourcePoint" />
            <mxPoint x="530" y="390" as="targetPoint" />
          </mxGeometry>
        </mxCell>
        <mxCell id="PYKxxs9gpcjiEWfJuZfg-11" value="AXI4" style="text;html=1;align=center;verticalAlign=middle;resizable=0;points=[];autosize=1;strokeColor=none;fillColor=none;" vertex="1" parent="1">
          <mxGeometry x="450" y="368" width="50" height="30" as="geometry" />
        </mxCell>
        <mxCell id="PYKxxs9gpcjiEWfJuZfg-13" value="LiDAR" style="text;html=1;align=center;verticalAlign=middle;resizable=0;points=[];autosize=1;strokeColor=none;fillColor=none;" vertex="1" parent="1">
          <mxGeometry x="340" y="490" width="60" height="30" as="geometry" />
        </mxCell>
        <mxCell id="PYKxxs9gpcjiEWfJuZfg-18" value="To Motors but also 2" style="text;html=1;align=center;verticalAlign=middle;resizable=0;points=[];autosize=1;strokeColor=none;fillColor=none;" vertex="1" parent="1">
          <mxGeometry x="870" y="190" width="130" height="30" as="geometry" />
        </mxCell>
        <mxCell id="PYKxxs9gpcjiEWfJuZfg-19" value="Pre-processing" style="rounded=0;whiteSpace=wrap;html=1;" vertex="1" parent="1">
          <mxGeometry x="430" y="500" width="120" height="60" as="geometry" />
        </mxCell>
        <mxCell id="PYKxxs9gpcjiEWfJuZfg-21" value="Loop Closure" style="rounded=0;whiteSpace=wrap;html=1;" vertex="1" parent="1">
          <mxGeometry x="430" y="570" width="120" height="60" as="geometry" />
        </mxCell>
        <mxCell id="PYKxxs9gpcjiEWfJuZfg-29" value="IMU" style="rounded=0;whiteSpace=wrap;html=1;" vertex="1" parent="1">
          <mxGeometry x="820" y="485" width="50" height="40" as="geometry" />
        </mxCell>
      </root>
    </mxGraphModel>
  </diagram>
</mxfile>
